<svg width="133" height="50" viewBox="0 0 133 50" fill="none" xmlns="http://www.w3.org/2000/svg">
<g clip-path="url(#clip0_2_15)">
<path d="M133 15.0258L128.251 20.8592H128.247C113.424 19.6718 96.8287 21.2353 80.4962 24.1593C80.4852 24.163 80.4779 24.163 80.4669 24.163C80.4596 24.163 80.4523 24.163 80.445 24.1667C80.4413 24.1667 80.434 24.1704 80.4304 24.1704C103.282 16.4381 133 15.0258 133 15.0258Z" fill="white"/>
<path d="M67.0521 26.8621C45.5277 31.6409 25.4914 38.16 11.8792 43.0383C16.965 36.2205 29.155 30.0332 40.6978 24.6018C54.0541 18.3112 48.4929 0 48.4929 0C58.8474 7.52581 64.8473 21.0583 67.0521 26.8621Z" fill="white"/>
<path d="M93.3845 34.7456C93.3369 33.9491 93.9366 33.2633 94.7263 33.2153C95.5197 33.1674 96.1998 33.7721 96.2473 34.5723C96.2949 35.3687 95.6952 36.0546 94.9018 36.1062C94.1121 36.1504 93.432 35.5457 93.3845 34.7456Z" fill="white"/>
<path d="M125.837 23.8238L101.165 49.8488L101.022 50H51.3046C65.9479 45.601 88.0353 44.0155 88.0353 44.0155C85.6405 38.9381 87.9549 36.5302 87.9549 36.5302C87.5308 38.2043 90.4229 43.8901 94.3607 42.0022C98.2363 40.1401 101.907 34.8451 102.017 34.6829L98.9712 36.1873L101.834 31.6593C72.8509 32.5885 39.7654 43.7832 23.4622 50.0037H0C0 50.0037 0.124313 49.9521 0.365626 49.8525C1.45153 49.4027 4.91401 47.9904 10.1388 46.0325C22.3288 41.4639 44.1164 33.9344 67.7431 28.7721C87.3114 24.4875 108.145 21.8326 125.837 23.8238Z" fill="white"/>
</g>
<defs>
<clipPath id="clip0_2_15">
<rect width="133" height="50" fill="white"/>
</clipPath>
</defs>
</svg>
