<svg width="135" height="50" viewBox="0 0 135 50" fill="none" xmlns="http://www.w3.org/2000/svg">
<path d="M134.12 15.0247L129.33 20.8576H129.327C114.379 19.6704 97.644 21.2337 81.174 24.1575C81.1629 24.1612 81.1555 24.1612 81.1445 24.1612C81.1371 24.1612 81.1297 24.1612 81.1224 24.1649C81.1187 24.1649 81.1113 24.1686 81.1076 24.1686C104.152 16.4369 134.12 15.0247 134.12 15.0247Z" fill="#F79320"/>
<path d="M67.6167 26.8601C45.911 31.6385 25.706 38.1572 11.9792 43.0352C17.1079 36.2178 29.4005 30.031 41.0405 24.6C54.5092 18.3099 48.9012 0 48.9012 0C59.3429 7.52526 65.3934 21.0567 67.6167 26.8601Z" fill="#F79320"/>
<path d="M94.1708 34.743C94.1228 33.9466 94.7275 33.2608 95.5239 33.2129C96.324 33.1649 97.0098 33.7696 97.0577 34.5697C97.1056 35.3661 96.501 36.0519 95.7009 36.1035C94.9045 36.1478 94.2187 35.5431 94.1708 34.743Z" fill="#204283"/>
<path d="M126.897 23.822L102.017 49.8452L101.873 49.9963H51.7366C66.5032 45.5977 88.7766 44.0122 88.7766 44.0122C86.3616 38.9352 88.6955 36.5275 88.6955 36.5275C88.2678 38.2015 91.1843 43.8869 95.1552 41.9991C99.0635 40.1372 102.765 34.8426 102.876 34.6803L99.8046 36.1847L102.692 31.657C73.4643 32.5861 40.1003 43.78 23.6598 50H0C0 50 0.125359 49.9484 0.368704 49.8488C1.46376 49.399 4.95539 47.9869 10.2242 46.0291C22.5168 41.4608 44.4879 33.9319 68.3135 28.77C88.0466 24.4857 109.055 21.831 126.897 23.822Z" fill="#204283"/>
</svg>
